HIERARCHY
ROOT Hips
{
	OFFSET -3.958830 18.904000 13.208200
	CHANNELS 6 Xposition Yposition Zposition Zrotation Yrotation Xrotation 
	JOINT LHipJoint
	{
		OFFSET 0.000000 0.000000 0.000000
		CHANNELS 3 Zrotation Yrotation Xrotation
		JOINT LeftUpLeg
		{
			OFFSET 1.800000 -1.400000 0.085000
			CHANNELS 3 Zrotation Yrotation Xrotation
			JOINT LeftLeg
			{
				OFFSET 2.215000 -6.000000 0.000000
				CHANNELS 3 Zrotation Yrotation Xrotation
				JOINT LeftFoot
				{
					OFFSET 2.500000 -6.900000 0.000000
					CHANNELS 3 Zrotation Yrotation Xrotation
					JOINT LeftToeBase
					{
						OFFSET 0.200000 -0.500000 1.950000
						CHANNELS 3 Zrotation Yrotation Xrotation
						End Site
						{
							OFFSET 0.000000 0.000000 0.000000
						}
					}
				}
			}
		}
	}
	JOINT RHipJoint
	{
		OFFSET 0.000000 0.000000 0.000000
		CHANNELS 3 Zrotation Yrotation Xrotation
		JOINT RightUpLeg
		{
			OFFSET -1.800000 -1.400000 0.085000
			CHANNELS 3 Zrotation Yrotation Xrotation
			JOINT RightLeg
			{
				OFFSET -2.215000 -6.000000 0.000000
				CHANNELS 3 Zrotation Yrotation Xrotation
				JOINT RightFoot
				{
					OFFSET -2.500000 -6.900000 0.000000
					CHANNELS 3 Zrotation Yrotation Xrotation
					JOINT RightToeBase
					{
						OFFSET -0.200000 -0.500000 1.950000
						CHANNELS 3 Zrotation Yrotation Xrotation
						End Site
						{
							OFFSET 0.000000 0.000000 0.000000
						}
					}
				}
			}
		}
	}
	JOINT LowerBack
	{
		OFFSET 0.000000 0.000000 0.000000
		CHANNELS 3 Zrotation Yrotation Xrotation
		JOINT Spine
		{
			OFFSET -0.087000 1.940000 -0.288900
			CHANNELS 3 Zrotation Yrotation Xrotation
			JOINT Spine1
			{
				OFFSET 0.000000 1.950000 0.060000
				CHANNELS 3 Zrotation Yrotation Xrotation
				JOINT Neck
				{
					OFFSET 0.000000 0.000000 0.000000
					CHANNELS 3 Zrotation Yrotation Xrotation
					JOINT Neck1
					{
						OFFSET 0.000000 1.600000 0.340000
						CHANNELS 3 Zrotation Yrotation Xrotation
						JOINT Head
						{
							OFFSET 0.000000 1.667000 -0.240000
							CHANNELS 3 Zrotation Yrotation Xrotation
							End Site
							{
								OFFSET 0.000000 0.000000 0.000000
							}
						}
					}
				}
				JOINT LeftShoulder
				{
					OFFSET 0.000000 0.000000 0.000000
					CHANNELS 3 Zrotation Yrotation Xrotation
					JOINT LeftArm
					{
						OFFSET 2.700000 1.550000 -0.730000
						CHANNELS 3 Zrotation Yrotation Xrotation
						JOINT LeftForeArm
						{
							OFFSET 5.450000 0.000000 0.000000
							CHANNELS 3 Zrotation Yrotation Xrotation
							JOINT LeftHand
							{
								OFFSET 3.450000 0.000000 0.000000
								CHANNELS 3 Zrotation Yrotation Xrotation
								JOINT LeftHandIndex1
								{
									OFFSET 0.750000 0.000000 0.000000
									CHANNELS 3 Zrotation Yrotation Xrotation
									End Site
									{
										OFFSET 0.000000 0.000000 0.000000
									}
								}
							}
						}
					}
				}
				JOINT RightShoulder
				{
					OFFSET 0.000000 0.000000 0.000000
					CHANNELS 3 Zrotation Yrotation Xrotation
					JOINT RightArm
					{
						OFFSET -2.700000 1.550000 -0.730000
						CHANNELS 3 Zrotation Yrotation Xrotation
						JOINT RightForeArm
						{
							OFFSET -5.450000 0.000000 0.000000
							CHANNELS 3 Zrotation Yrotation Xrotation
							JOINT RightHand
							{
								OFFSET -3.450000 0.000000 0.000000
								CHANNELS 3 Zrotation Yrotation Xrotation
								JOINT RightHandIndex1
								{
									OFFSET -0.750000 0.000000 0.000000
									CHANNELS 3 Zrotation Yrotation Xrotation
									End Site
									{
										OFFSET 0.000000 0.000000 0.000000
									}
								}
							}
						}
					}
				}
			}
		}
	}
}
MOTION
Frames: 4
Frame Time: 0.016667
0.063760 16.380430 -0.609030 -16.815700 -21.288009 2.931668 -15.076388 10.860337 0.384355 10.287038 -1.602630 -10.018078 -0.107993 5.218274 19.733065 -1.008115 4.618404 3.282221 1.089280 0.517960 0.674030 19.321231 -6.551671 8.794073 -40.349840 5.363831 -86.762693 45.440016 -57.530679 74.483092 -4.011887 -17.993603 -0.456680 0.601110 0.460150 0.286370 -5.787656 -1.014601 -8.834426 28.175871 -9.236930 17.139599 -12.566539 -1.018718 3.957574 1.152471 -7.955685 -6.060710 -13.593265 10.016824 22.220595 -0.077410 2.922940 -9.098570 -31.313212 -7.034738 -0.664811 -25.253604 0.324592 -4.004426 -35.606058 -23.715315 4.063527 -3.735363 3.413101 0.547700 0.354760 -0.281370 0.567390 27.814784 8.983034 5.345208 26.312813 -6.878806 -6.364796 20.993849 23.251509 1.042931 1.512110 -1.932704 -0.339310 0.369820 -0.303500 -0.369310 
0.073920 16.333560 -0.633730 -16.904390 -22.081135 1.964636 -15.080534 10.982813 0.414734 10.083233 -1.379463 -9.581131 -0.112366 5.526644 21.238010 -0.938352 4.743183 3.203880 1.132340 0.578400 0.711760 19.278017 -6.590226 8.780266 -39.955233 6.365935 -85.576483 46.601313 -58.876502 74.881043 -4.123976 -18.065650 -0.451068 0.596830 0.376480 0.288120 -5.726685 -1.121643 -8.878343 28.094608 -9.683170 19.582713 -13.044356 -1.168100 3.138429 1.329122 -8.103500 -6.253156 -13.984970 10.374559 22.718339 0.047900 3.359390 -11.043110 -31.874004 -7.346018 -0.565758 -24.570209 0.937179 -4.280360 -34.635001 -23.210023 3.688039 -3.633175 3.415287 0.597690 0.285410 -0.202150 0.568250 28.024629 9.445516 5.516197 25.731542 -7.043324 -6.694623 21.857819 24.605540 1.451404 1.528323 -1.928710 -0.296580 0.346400 -0.341880 -0.369550 
0.082580 16.244290 -0.672280 -17.462040 -24.598622 1.825931 -15.072088 11.098731 0.457512 10.053416 -1.137320 -10.242391 -0.043692 6.127123 24.082078 -0.877631 5.082321 3.070066 1.098900 0.569990 0.681930 19.221184 -6.746473 8.652584 -37.943929 9.747369 -84.098616 45.013447 -60.004347 78.247368 -4.321653 -18.774160 -0.557676 0.593640 0.388320 0.259160 -5.725126 -1.053939 -8.857824 28.729760 -9.805746 21.720774 -13.919720 -0.980448 1.941036 1.412675 -8.560504 -6.123608 -14.810632 10.783865 22.663010 0.202780 3.310270 -11.534170 -33.252576 -7.216183 -0.772680 -23.229807 1.636199 -4.200385 -32.560743 -21.822670 2.964400 -3.616292 3.353898 0.594280 0.280810 -0.200060 0.558440 29.098429 9.656704 5.582038 23.450497 -7.742980 -6.949481 24.408779 27.907350 2.533582 1.490406 -1.957482 -0.310040 0.390920 -0.320760 -0.359700 
0.127760 16.138070 -0.704860 -17.948723 -27.477978 1.971146 -15.020563 11.330741 0.628071 9.209657 -0.928112 -11.986078 0.775979 6.666598 28.275926 -0.807942 5.530187 2.869641 1.085320 0.543450 0.692640 19.127836 -7.229094 8.124839 -31.697144 15.578421 -77.355347 35.822464 -56.547625 86.156716 -4.584852 -20.045453 -0.819259 0.564050 0.356640 0.265180 -5.710030 -0.880314 -8.707163 29.873754 -9.580757 23.236414 -15.384473 -0.810075 1.123004 1.822265 -8.663286 -6.144904 -15.091986 11.209574 23.358488 0.156810 3.742230 -12.591050 -34.211508 -7.222827 -0.939571 -23.280206 1.777403 -4.206025 -28.832016 -19.460993 1.725016 -3.586562 3.282227 0.644590 0.247350 -0.164850 0.536390 29.101732 9.672620 5.831455 22.705672 -9.347879 -8.158895 26.688446 34.076675 4.239711 1.458974 -1.997847 -0.309300 0.390730 -0.302830 -0.376460 
